<?xml version="1.0" encoding="utf-8"?>
<!-- Generator: Adobe Illustrator 16.0.2, SVG Export Plug-In . SVG Version: 6.00 Build 0)  -->
<!DOCTYPE svg PUBLIC "-//W3C//DTD SVG 1.1//EN" "http://www.w3.org/Graphics/SVG/1.1/DTD/svg11.dtd">
<svg version="1.1" id="圖層_1" xmlns="http://www.w3.org/2000/svg" xmlns:xlink="http://www.w3.org/1999/xlink" x="0px" y="0px"
	 width="379.333px" height="96px" viewBox="0 0 379.333 96" enable-background="new 0 0 379.333 96" xml:space="preserve">
<g id="圖層_2" display="none">
	<rect display="inline" width="379.333" height="96"/>
</g>
<g id="原始文字" display="none">
	
		<circle display="inline" fill="none" stroke="#656464" stroke-width="5" stroke-miterlimit="10" cx="34.096" cy="48.735" r="18.878"/>
	
		<text transform="matrix(1 0 0 1 17.8022 56.8984)" display="inline" fill="#656464" font-family="'Arial-BoldMT'" font-size="26.3791">air</text>
	<rect x="52.975" y="46.754" display="inline" fill="#656464" width="74.478" height="5.172"/>
	<rect x="59.827" y="37.993" display="inline" fill="#656464" width="5.172" height="21.884"/>
	<rect x="69.654" y="37.993" display="inline" fill="#656464" width="5.172" height="21.884"/>
	
		<text transform="matrix(1 0 0 1 95.1514 47.5659)" display="inline" fill="#656464" font-family="'Arial-BoldMT'" font-size="19.2859">loft</text>
	
		<text transform="matrix(1 0 0 1 140.0732 74.9902)" display="inline" fill="#FFFFFF" font-family="'LiHeiPro'" font-size="75.7934" letter-spacing="1">看房去</text>
</g>
<g id="轉外框">
	<circle fill="none" stroke="#656464" stroke-width="5" stroke-miterlimit="10" cx="34.096" cy="48.735" r="18.878"/>
	<g>
		<path fill="#656464" d="M22.4,47.394l-3.284-0.592c0.369-1.322,1.004-2.301,1.906-2.938c0.901-0.635,2.241-0.953,4.019-0.953
			c1.614,0,2.816,0.191,3.606,0.573c0.79,0.382,1.346,0.868,1.668,1.456c0.322,0.588,0.483,1.668,0.483,3.239l-0.039,4.224
			c0,1.203,0.058,2.09,0.174,2.66c0.116,0.572,0.333,1.184,0.651,1.836h-3.581c-0.095-0.24-0.21-0.598-0.348-1.069
			c-0.06-0.215-0.103-0.356-0.129-0.425c-0.618,0.601-1.279,1.052-1.983,1.353c-0.704,0.3-1.456,0.451-2.254,0.451
			c-1.408,0-2.518-0.382-3.33-1.146c-0.811-0.765-1.217-1.73-1.217-2.898c0-0.773,0.185-1.462,0.554-2.066
			c0.369-0.605,0.887-1.07,1.552-1.392s1.625-0.603,2.878-0.845c1.692-0.316,2.864-0.613,3.517-0.888v-0.36
			c0-0.696-0.172-1.191-0.515-1.488c-0.344-0.296-0.992-0.444-1.945-0.444c-0.644,0-1.146,0.127-1.507,0.38
			C22.916,46.314,22.624,46.758,22.4,47.394z M27.244,50.331c-0.464,0.153-1.198,0.339-2.203,0.554s-1.662,0.426-1.971,0.631
			c-0.472,0.334-0.708,0.76-0.708,1.275c0,0.507,0.189,0.945,0.567,1.314c0.378,0.369,0.858,0.554,1.442,0.554
			c0.653,0,1.275-0.214,1.868-0.644c0.438-0.326,0.726-0.727,0.863-1.199c0.094-0.309,0.142-0.896,0.142-1.764V50.331z"/>
		<path fill="#656464" d="M34.367,41.366v-3.349h3.619v3.349H34.367z M34.367,56.898V43.22h3.619v13.678H34.367z"/>
		<path fill="#656464" d="M45.16,56.898h-3.62V43.22h3.362v1.945c0.575-0.919,1.093-1.524,1.552-1.816s0.981-0.438,1.565-0.438
			c0.824,0,1.619,0.228,2.383,0.683l-1.121,3.156c-0.61-0.395-1.177-0.592-1.7-0.592c-0.507,0-0.936,0.14-1.288,0.418
			c-0.352,0.279-0.629,0.784-0.831,1.514c-0.202,0.73-0.303,2.258-0.303,4.585L45.16,56.898L45.16,56.898z"/>
	</g>
	<rect x="52.975" y="46.754" fill="#656464" width="74.478" height="5.172"/>
	<rect x="59.827" y="37.993" fill="#656464" width="5.172" height="21.884"/>
	<rect x="69.654" y="37.993" fill="#656464" width="5.172" height="21.884"/>
	<g>
		<path fill="#656464" d="M96.536,47.566V33.761h2.646v13.805H96.536z"/>
		<path fill="#656464" d="M101.282,42.424c0-0.879,0.217-1.729,0.65-2.552c0.433-0.822,1.047-1.45,1.841-1.883
			c0.794-0.433,1.681-0.65,2.66-0.65c1.513,0,2.753,0.492,3.72,1.474c0.967,0.982,1.45,2.224,1.45,3.724
			c0,1.513-0.488,2.767-1.464,3.762c-0.977,0.995-2.205,1.493-3.687,1.493c-0.917,0-1.791-0.207-2.623-0.622
			s-1.464-1.022-1.897-1.822C101.499,44.548,101.282,43.573,101.282,42.424z M103.994,42.565c0,0.992,0.235,1.751,0.706,2.279
			c0.471,0.527,1.052,0.791,1.742,0.791s1.27-0.264,1.737-0.791c0.467-0.527,0.702-1.293,0.702-2.297
			c0-0.979-0.234-1.733-0.702-2.26c-0.468-0.527-1.047-0.791-1.737-0.791s-1.271,0.264-1.742,0.791
			C104.229,40.814,103.994,41.574,103.994,42.565z"/>
		<path fill="#656464" d="M112.516,37.565h1.469v-0.753c0-0.841,0.09-1.469,0.269-1.883c0.179-0.414,0.509-0.751,0.989-1.012
			c0.48-0.26,1.088-0.391,1.822-0.391c0.753,0,1.491,0.113,2.213,0.339l-0.358,1.846c-0.42-0.1-0.826-0.151-1.215-0.151
			c-0.383,0-0.658,0.09-0.824,0.269c-0.167,0.179-0.25,0.522-0.25,1.031v0.706h1.978v2.082h-1.978v7.919h-2.646v-7.919h-1.469
			V37.565z"/>
		<path fill="#656464" d="M124.683,37.565v2.109h-1.808v4.031c0,0.816,0.018,1.292,0.052,1.427c0.035,0.135,0.113,0.246,0.236,0.334
			c0.122,0.088,0.271,0.132,0.447,0.132c0.245,0,0.599-0.084,1.064-0.254l0.226,2.053c-0.615,0.264-1.313,0.396-2.091,0.396
			c-0.477,0-0.907-0.08-1.29-0.24c-0.383-0.16-0.664-0.367-0.843-0.622c-0.179-0.254-0.303-0.598-0.372-1.031
			c-0.056-0.307-0.084-0.929-0.084-1.864v-4.36h-1.215v-2.109h1.215V35.58l2.655-1.544v3.531h1.808V37.565z"/>
	</g>
	<g>
		<path fill="#FD3F41" d="M203.665,13.597l3.258,5.685c-7.832,1.516-17.052,2.603-27.665,3.259
			c-0.557,1.667-1.112,3.234-1.667,4.699h31.455v5.306h-33.651c-0.657,1.516-1.339,2.906-2.046,4.168h38.654v5.609h-41.989
			c-0.253,0.405-0.506,0.809-0.758,1.213c-0.708,1.061-1.416,2.046-2.123,2.956h37.746v35.852h-6.519v-2.426h-34.334v2.426h-6.518
			V56.951c-3.134,2.982-6.594,5.912-10.384,8.792l-3.866-6.519c7.983-6.063,14.072-11.698,18.267-16.903H144.47v-5.609h20.995
			c0.859-1.313,1.692-2.702,2.501-4.168h-20.237V27.24h22.738c0.606-1.364,1.187-2.804,1.743-4.32
			c-6.872,0.303-14.249,0.455-22.131,0.455l-1.743-5.912C170.112,17.462,188.555,16.174,203.665,13.597z M164.024,55.966h34.334
			V52.1h-34.334V55.966z M164.024,65.137h34.334v-4.168h-34.334V65.137z M164.024,74.309h34.334v-4.168h-34.334V74.309z"/>
		<path fill="#FD3F41" d="M286.204,12.763l3.563,6.519c-16.424,1.364-34.893,2.148-55.405,2.35v4.093h52.752V43.84h-24.784
			l2.426,5.607h26.148v5.912h-33.576c-0.152,2.123-0.455,4.094-0.91,5.912h30.09c-0.557,8.744-1.313,14.123-2.272,16.145
			c-0.455,1.516-1.87,2.703-4.243,3.563c-1.468,0.707-6.898,1.062-16.297,1.062l-1.742-7.125c2.475,0.201,4.243,0.303,5.305,0.303
			c4.496,0,7.277-0.178,8.338-0.53c1.869-0.758,2.93-3.36,3.184-7.808h-24.254c-0.758,1.567-1.618,2.981-2.577,4.245
			c-2.931,4.094-8.085,7.906-15.462,11.443l-4.168-6.746c6.012-2.322,10.434-5.077,13.264-8.26
			c2.525-2.931,4.043-6.998,4.547-12.203h-16.066c-0.305,3.84-0.885,7.832-1.743,11.975c-1.213,5.053-3.185,9.854-5.912,14.4
			l-5.306-5.608c2.07-3.688,3.563-7.401,4.472-11.142c0.858-4.144,1.44-8.918,1.743-14.325v-34.94
			C250.909,15.719,270.54,14.734,286.204,12.763z M234.36,37.927h46.234v-6.215H234.36V37.927z M234.36,49.447h22.738l-2.501-5.608
			H234.36V49.447z"/>
		<path fill="#FD3F41" d="M304.167,24.587h26.072V12.763h7.352v11.824h25.771v6.821H337.59v11.824h30.85v7.125h-38.883
			c-1.971,6.721-5.18,13.793-9.625,21.222c11.873-0.759,22.586-1.945,32.136-3.563c-2.173-3.535-4.522-7.148-7.049-10.838
			l5.912-3.865c6.821,9.146,12.151,17.028,15.991,23.647l-7.123,4.774c-1.164-2.375-2.451-4.774-3.865-7.199
			c-10.764,2.172-28.223,4.168-52.374,5.986l-1.138-8.26c2.83-0.051,5.584-0.125,8.263-0.229c4.599-6.67,8.262-13.895,10.989-21.678
			h-21.676v-7.125h30.24V31.409h-26.072V24.587z"/>
	</g>
</g>
</svg>
